# AST/ASF file generated using VICON BodyLanguage
# -----------------------------------------------
:version 1.10
:name VICON
:units
  mass 1.0
  length 0.45
  angle deg
:documentation
   .ast/.asf automatically generated from VICON data using
   VICON BodyBuilder and BodyLanguage model FoxedUp or BRILLIANT.MOD
:root
   order TX TY TZ RX RY RZ
   axis XYZ
   position 0 0 0  
   orientation 0 0 0 
:bonedata
  begin
     id 1 
     name lhipjoint
     direction 0.602128 -0.715006 0.355257 
     length 2.21237 
     axis 0 0 0  XYZ
  end
  begin
     id 2 
     name lfemur
     direction 0.34202 -0.939693 0  
     length 6.71649  
     axis 0 0 20  XYZ
    dof rx ry rz
    limits (-160.0 20.0)
           (-70.0 70.0)
           (-60.0 70.0)
  end
  begin
     id 3 
     name ltibia
     direction 0.34202 -0.939693 0   
     length 6.97123   
     axis 0 0 20   XYZ
    dof rx
    limits (-10.0 170.0)
  end
  begin
     id 4 
     name lfoot
     direction 0.0655697 -0.180151 0.981451   
     length 1.80924   
     axis -90 7.62852e-016 20   XYZ
    dof rx rz
    limits (-45.0 90.0)
           (-70.0 20.0)
  end
  begin
     id 5 
     name ltoes
     direction 1.53545e-011 -4.21827e-011 1   
     length 0.916331   
     axis -90 7.62852e-016 20   XYZ
    dof rx
    limits (-90.0 20.0)
  end
  begin
     id 6 
     name rhipjoint
     direction -0.625414 -0.698792 0.347201   
     length 2.2637  
     axis 0 0 0  XYZ 
  end
  begin
     id 7 
     name rfemur
     direction -0.34202 -0.939693 0   
     length 7.07595   
     axis 0 0 -20   XYZ
    dof rx ry rz
    limits (-160.0 20.0)
           (-70.0 70.0)
           (-70.0 60.0)
  end
  begin
     id 8 
     name rtibia
     direction -0.34202 -0.939693 0   
     length 7.22924   
     axis 0 0 -20   XYZ
    dof rx
    limits (-10.0 170.0)
 end
 begin
     id 9 
     name rfoot
     direction -0.0766747 -0.210662 0.974547   
     length 1.98482  
     axis -90 -7.62852e-016 -20   XYZ
    dof rx rz
    limits (-45.0 90.0)
           (-20.0 70.0)
  end
  begin
     id 10 
     name rtoes
     direction -1.53532e-011 -4.21867e-011 1   
     length 0.999842   
     axis -90 -7.62852e-016 -20   XYZ
    dof rx
    limits (-90.0 20.0)
  end
  begin
     id 11 
     name lowerback
     direction -0.0224668 0.997354 -0.0691422   
     length 2.09945   
     axis 0 0 0   XYZ
    dof rx ry rz
    limits (-20.0 45.0)
           (-30.0 30.0)
           (-30.0 30.0)
  end
  begin
     id 12 
     name upperback
     direction 0.0134698 0.998451 -0.0539888   
     length 2.09758   
     axis 0 0 0   XYZ
    dof rx ry rz
    limits (-20.0 45.0)
           (-30.0 30.0)
           (-30.0 30.0)
  end
  begin
     id 13 
     name thorax
     direction 0.0241905 0.99948 -0.0213333   
     length 2.10428   
     axis 0 0 0   XYZ
    dof rx ry rz
    limits (-20.0 45.0)
           (-30.0 30.0)
           (-30.0 30.0)
  end
  begin
     id 14 
     name lowerneck
     direction -0.00866847 0.995978 0.0891737   
     length 1.3959   
     axis 0 0 0   XYZ
    dof rx ry rz
    limits (-20.0 45.0)
           (-30.0 30.0)
           (-30.0 30.0)
  end
  begin
     id 15 
     name upperneck
     direction 0.0680679 0.992203 0.104404   
     length 1.39452   
     axis 0 0 0   XYZ
    dof rx ry rz
    limits (-20.0 45.0)
           (-30.0 30.0)
           (-30.0 30.0)
  end
  begin
     id 16
     name head
     direction 0.0242216 0.999358 0.0264054  
     length 1.40433  
     axis 0 0 0   XYZ
    dof rx ry rz
    limits (-20.0 45.0)
           (-30.0 30.0)
           (-30.0 30.0)
  end
  begin
     id 17 
     name lclavicle
     direction 0.929368 0.362991 -0.0671771  
     length 3.04887  
     axis 0 0 0   XYZ
    dof ry rz
    limits (-20.0 10.0)
           (0.0 20.0)
  end
  begin
     id 18 
     name lhumerus
     direction 1 -4.48967e-011 -7.13741e-028   
     length 4.77195   
     axis -180 -30 -90   XYZ
    dof rx ry rz
    limits (-60.0 90.0)
           (-90.0 90.0)
           (-90.0 90.0)
  end
  begin
     id 19
     name lradius
     direction 1 -4.48977e-011 3.60404e-027   
     length 2.98444   
     axis -180 -30 -90   XYZ
    dof rx
    limits (-10.0 170.0)
  end
  begin
     id 20
     name lwrist
     direction 1 -4.48997e-011 7.54877e-027   
     length 1.49222   
     axis -7.18178e-015 90 90   XYZ
    dof ry
    limits (-180.0 0.0)
 end
  begin
     id 21 
     name lhand
     direction 1 -4.489e-011 1.51105e-026   
     length 0.992285   
     axis -9.63605e-015 90 90   XYZ
    dof rx rz
    limits (-90.0 90.0)
           (-45.0 45.0)
  end
  begin
     id 22 
     name lfingers
     direction 1 -4.48998e-011 3.01948e-026   
     length 0.800006   
     axis -1.92718e-014 90 90   XYZ
    dof rx
    limits (0.0 90.0)
  end
  begin
     id 23
     name lthumb
     direction 0.707107 -6.34881e-011 0.707107   
     length 1.14865   
     axis -90 45 -3.53137e-014   XYZ
    dof rx rz
    limits (-45.0 45.0)
           (-45.0 45.0)
  end
  begin
     id 24 
     name rclavicle
     direction -0.945672 0.324529 0.0196374   
     length 3.4236  
     axis 0 0 0   XYZ 
    dof ry rz
    limits (-10.0 20.0)
           (-20.0 0.0)
  end
  begin
     id 25 
     name rhumerus
     direction -1 -4.4896e-011 1.02757e-029  
     length 4.62052   
     axis -180 30 90   XYZ
    dof rx ry rz
    limits (-90.0 60.0)
           (-90.0 90.0)
           (-90.0 90.0)
  end
  begin
     id 26 
     name rradius
     direction -1 -4.48982e-011 3.85962e-027   
     length 2.95332   
     axis -180 30 90   XYZ
    dof rx
    limits (-10.0 170.0)
  end
  begin
     id 27 
     name rwrist
     direction -1 -4.48961e-011 7.55118e-027   
     length 1.47666   
     axis -7.18178e-015 -90 -90   XYZ
    dof ry
    limits (-180.0 0.0)
  end
  begin
     id 28
     name rhand
     direction -1 -4.48984e-011 1.50994e-026   
     length 0.990956   
     axis -9.63605e-015 -90 -90   XYZ
    dof rx rz
    limits (-90.0 90.0)
           (-45.0 45.0)
  end
  begin
     id 29
     name rfingers
     direction -1 -4.4892e-011 3.02158e-026   
     length 0.798934   
     axis -1.92718e-014 -90 -90   XYZ
    dof rx
    limits (0.0 90.0)
  end
  begin
     id 30
     name rthumb
     direction -0.707107 -6.34916e-011 0.707107   
     length 1.14711   
     axis -90 -45 3.53137e-014   XYZ
    dof rx rz
    limits (-45.0 45.0)
           (-45.0 45.0)
  end
:hierarchy
  begin
    root lhipjoint rhipjoint lowerback
    lhipjoint lfemur
    lfemur ltibia
    ltibia lfoot
    lfoot ltoes
    rhipjoint rfemur
    rfemur rtibia
    rtibia rfoot
    rfoot rtoes
    lowerback upperback
    upperback thorax
    thorax lowerneck lclavicle rclavicle
    lowerneck upperneck
    upperneck head
    lclavicle lhumerus
    lhumerus lradius
    lradius lwrist
    lwrist lhand lthumb
    lhand lfingers
    rclavicle rhumerus
    rhumerus rradius
    rradius rwrist
    rwrist rhand rthumb
    rhand rfingers
  end

#!OML:ASF H:\ManfredObstacles\Project 1\Capture day 1\Session 1\Male.ASF
:FULLY-SPECIFIED
:DEGREES
156
root -9.44587 16.1399 35.5426 -171.63 -0.990361 -179.206
lowerback -6.73267 -0.710984 -1.38425
upperback 2.2355 -0.840056 0.174063
thorax 6.13399 -0.473513 0.858536
lowerneck 0.40418 -1.15936 -4.95018
upperneck -8.27959 -0.870024 7.0987
head -2.69268 -0.348873 3.23842
rclavicle 9.69075e-016 -1.19271e-015
rhumerus -34.0944 -21.5063 -77.2346
rradius 25.0856
rwrist 33.0487
rhand 0.79736 -5.84927
rfingers 7.12502
rthumb 26.3539 -34.038
lclavicle 9.69075e-016 -1.19271e-015
lhumerus -29.8509 14.823 79.9342
lradius 20.1543
lwrist -30.0755
lhand -6.65702 11.0854
lfingers 7.12502
lthumb 19.2007 40.1576
rfemur -9.59335 -3.34796 24.419
rtibia 24.1203
rfoot -20.9811 19.8219
rtoes 22.5199
lfemur -37.984 -2.22527 -16.5577
ltibia 34.6194
lfoot 1.46372 2.51799
ltoes 12.0732
157
root -9.45148 16.1271 35.3649 -171.674 -0.580519 -179.107
lowerback -6.70495 -0.567829 -1.28387
upperback 2.27164 -0.659097 0.180167
thorax 6.15011 -0.381164 0.830242
lowerneck 0.361151 -1.0445 -4.96419
upperneck -8.20981 -0.726065 7.02828
head -2.67093 -0.275739 3.21183
rclavicle 2.85753e-015 2.5842e-015
rhumerus -33.5965 -20.8632 -77.7735
rradius 25.2188
rwrist 32.9352
rhand 0.728777 -5.9633
rfingers 7.12502
rthumb 26.2882 -34.1619
lclavicle 2.85753e-015 2.5842e-015
lhumerus -30.192 15.41 79.4717
lradius 19.8322
lwrist -30.3453
lhand -6.68738 11.3768
lfingers 7.12502
lthumb 19.1715 40.4519
rfemur -8.58948 -3.07875 24.4322
rtibia 23.5954
rfoot -21.1387 19.9457
rtoes 22.5625
lfemur -37.4115 -1.95909 -16.381
ltibia 30.6165
lfoot 2.95971 2.33699
ltoes 15.1715
158
root -9.46036 16.1078 35.1809 -171.771 -0.171974 -179.115
lowerback -6.68677 -0.433462 -1.28111
upperback 2.3434 -0.478335 0.133373
thorax 6.21037 -0.292342 0.801297
lowerneck 0.346833 -0.970325 -4.99919
upperneck -8.22933 -0.627576 6.98889
head -2.68163 -0.224107 3.20308
rclavicle -7.45443e-016 3.37934e-015
rhumerus -33.0976 -20.2476 -78.3223
rradius 25.3831
rwrist 32.6117
rhand 0.683569 -6.14843
rfingers 7.12502
rthumb 26.2449 -34.3535
lclavicle -7.45443e-016 3.37934e-015
lhumerus -30.5481 16.3369 78.8002
lradius 19.4145
lwrist -31.0239
lhand -6.64919 11.3511
lfingers 7.12502
lthumb 19.2082 40.4225
rfemur -7.52449 -2.90315 24.3234
rtibia 23.1061
rfoot -21.3447 20.0258
rtoes 22.1042
lfemur -36.6141 -1.68343 -16.3541
ltibia 26.8256
lfoot 4.17961 1.88412
ltoes 17.3339
159
root -9.47317 16.0835 34.9906 -171.853 0.200653 -179.263
lowerback -6.70565 -0.366863 -1.4194
upperback 2.39092 -0.353464 0.0576527
thorax 6.26907 -0.227664 0.815592
lowerneck 0.4199 -0.887452 -4.93502
upperneck -8.34766 -0.51997 6.84016
head -2.74142 -0.169242 3.14034
rclavicle 1.2424e-015 -1.39149e-015
rhumerus -32.552 -19.6719 -78.8264
rradius 25.4604
rwrist 32.2887
rhand 0.713782 -6.17551
rfingers 7.12502
rthumb 26.2739 -34.3762
lclavicle 1.2424e-015 -1.39149e-015
lhumerus -31.0016 17.0994 78.114
lradius 18.9895
lwrist -31.6106
lhand -6.56343 11.2638
lfingers 7.12502
lthumb 19.2907 40.327
rfemur -6.44661 -2.86427 24.0407
rtibia 22.6198
rfoot -21.0256 20.4407
rtoes 24.1958
lfemur -35.7091 -1.48145 -16.4767
ltibia 23.3432
lfoot 4.90927 1.39472
ltoes 18.4415
160
root -9.48889 16.0694 34.796 -171.924 0.504127 -179.263
lowerback -6.72984 -0.335802 -1.41513
upperback 2.41165 -0.309954 0.0334599
thorax 6.30355 -0.205707 0.793064
lowerneck 0.441816 -0.782537 -4.89365
upperneck -8.34821 -0.387018 6.74823
head -2.75393 -0.103344 3.09819
rclavicle 1.83876e-015 3.57812e-015
rhumerus -32.0662 -19.1727 -79.2777
rradius 25.5352
rwrist 32.1116
rhand 0.810704 -6.40872
rfingers 7.12502
rthumb 26.3667 -34.5956
lclavicle 1.83876e-015 3.57812e-015
lhumerus -31.49 18.5581 77.1071
lradius 18.4313
lwrist -33.014
lhand -6.39731 11.1313
lfingers 7.12502
lthumb 19.4504 40.1785
rfemur -5.3584 -2.6747 23.9225
rtibia 22.1312
rfoot -20.7479 20.4087
rtoes 25.8169
lfemur -34.8207 -1.49956 -16.3578
ltibia 20.2589
lfoot 5.65599 1.06537
ltoes 17.1951
161
root -9.50535 16.0666 34.5954 -171.904 0.769349 -179.228
lowerback -6.88168 -0.291296 -1.35423
upperback 2.40489 -0.250381 -0.0295723
thorax 6.38128 -0.173178 0.699777
lowerneck 0.446462 -0.710758 -4.83954
upperneck -8.29738 -0.290767 6.76976
head -2.74399 -0.0584329 3.09254
rclavicle 1.63997e-015 5.56597e-015
rhumerus -31.6888 -18.9876 -79.6599
rradius 25.6158
rwrist 32.0821
rhand 0.859118 -6.73608
rfingers 7.12502
rthumb 26.413 -34.916
lclavicle 1.63997e-015 5.56597e-015
lhumerus -31.9361 20.152 75.9322
lradius 17.7288
lwrist -34.7004
lhand -6.29816 10.9386
lfingers 7.12502
lthumb 19.5457 39.9761
rfemur -4.36514 -2.2473 23.8733
rtibia 21.6613
rfoot -20.6111 20.0245
rtoes 26.5395
lfemur -34.0621 -1.5476 -16.2167
ltibia 17.6489
lfoot 5.92855 1.20303
ltoes 17.7199
162
root -9.52506 16.0547 34.3861 -171.753 0.990174 -179.26
lowerback -7.19625 -0.257945 -1.39305
upperback 2.32515 -0.195992 -0.0874361
thorax 6.47614 -0.147714 0.667129
lowerneck 0.513039 -0.678136 -4.73206
upperneck -8.21612 -0.260451 6.71981
head -2.72998 -0.0493502 3.05368
rclavicle -9.14409e-015 -6.36111e-015
rhumerus -31.4171 -18.872 -79.9429
rradius 25.7102
rwrist 32.0298
rhand 0.882647 -6.77339
rfingers 7.12502
rthumb 26.4355 -34.9499
lclavicle -9.14409e-015 -6.36111e-015
lhumerus -32.4659 21.153 74.9968
lradius 17.1136
lwrist -35.8101
lhand -6.26115 10.942
lfingers 7.12502
lthumb 19.5813 39.9759
rfemur -3.47177 -1.82889 23.7631
rtibia 21.2004
rfoot -20.1322 19.9345
rtoes 28.2982
lfemur -33.4135 -1.49679 -16.2648
ltibia 15.558
lfoot 6.39185 0.790831
ltoes 16.4154
163
root -9.55244 16.0331 34.1661 -171.652 1.21827 -179.376
lowerback -7.47217 -0.21037 -1.50532
upperback 2.2265 -0.115585 -0.140194
thorax 6.52852 -0.11202 0.68497
lowerneck 0.500469 -0.684459 -4.74359
upperneck -8.03423 -0.289411 6.71001
head -2.66448 -0.0673305 3.04976
rclavicle 7.45443e-016 3.57812e-015
rhumerus -31.2802 -18.7029 -80.1105
rradius 25.8487
rwrist 31.8014
rhand 0.896052 -6.67698
rfingers 7.12502
rthumb 26.4484 -34.8516
lclavicle 7.45443e-016 3.57812e-015
lhumerus -33.1 22.4592 73.9302
lradius 16.5276
lwrist -37.3419
lhand -6.08636 10.8766
lfingers 7.12502
lthumb 19.7493 39.8933
rfemur -2.49266 -1.62644 23.5124
rtibia 20.752
rfoot -19.756 19.9529
rtoes 29.096
lfemur -32.7239 -1.53275 -16.4389
ltibia 14.0966
lfoot 6.6381 0.947225
ltoes 18.2138
164
root -9.58323 16.0132 33.9394 -171.606 1.40334 -179.591
lowerback -7.70448 -0.18278 -1.76226
upperback 2.15837 -0.0463587 -0.183208
thorax 6.58874 -0.0876282 0.793357
lowerneck 0.411298 -0.693908 -4.95368
upperneck -7.8659 -0.308161 6.86419
head -2.59252 -0.0751647 3.13937
rclavicle -5.96354e-016 5.96354e-016
rhumerus -31.1797 -18.5457 -80.1759
rradius 26.0419
rwrist 31.484
rhand 0.943316 -6.7766
rfingers 7.12502
rthumb 26.4936 -34.9444
lclavicle -5.96354e-016 5.96354e-016
lhumerus -33.8127 24.7811 72.3951
lradius 15.7715
lwrist -39.8832
lhand -5.95875 10.6798
lfingers 7.12502
lthumb 19.872 39.6838
rfemur -1.44091 -1.45253 23.1351
rtibia 20.3248
rfoot -19.7328 19.7634
rtoes 28.5757
lfemur -32.1452 -1.74641 -16.683
ltibia 13.4625
lfoot 6.37463 -0.0693318
ltoes 15.1534
